<svg width="500" height="501" viewBox="0 0 500 501" fill="none" xmlns="http://www.w3.org/2000/svg">
<path fill-rule="evenodd" clip-rule="evenodd" d="M249.99 0.314636C111.933 0.314636 0 115.061 0 256.635C0 369.885 71.622 465.963 170.951 499.861C183.451 502.232 188.034 494.308 188.034 487.536C188.034 481.427 187.805 461.242 187.701 439.818C118.162 455.325 103.475 409.572 103.475 409.572C92.1003 379.946 75.726 372.064 75.726 372.064C53.0395 356.151 77.4343 356.493 77.4343 356.493C102.537 358.308 115.745 382.915 115.745 382.915C138.036 422.089 174.222 410.769 188.492 404.211C190.742 387.636 197.221 376.336 204.367 369.928C148.848 363.456 90.4754 341.477 90.4754 243.263C90.4754 215.282 100.246 192.405 116.245 174.463C113.641 167.991 105.079 141.931 118.662 106.623C118.662 106.623 139.661 99.7455 187.43 132.896C207.366 127.214 228.74 124.374 249.99 124.267C271.239 124.374 292.634 127.214 312.612 132.896C360.318 99.7241 381.297 106.623 381.297 106.623C394.9 141.931 386.338 167.991 383.755 174.463C399.775 192.405 409.483 215.282 409.483 243.263C409.483 341.712 351.006 363.392 295.342 369.736C304.3 377.682 312.3 393.296 312.3 417.198C312.3 451.502 312.008 479.099 312.008 487.536C312.008 494.35 316.508 502.36 329.174 499.84C428.461 465.899 500 369.864 500 256.656C499.979 115.082 388.046 0.314636 249.99 0.314636Z" fill="#E49090"/>
<path d="M94.6835 368.348C94.1419 369.629 92.1837 370.014 90.3921 369.138C88.5796 368.305 87.5588 366.553 88.1422 365.293C88.6838 363.99 90.6421 363.627 92.4545 364.503C94.2669 365.315 95.3085 367.066 94.6835 368.348Z" fill="#E49090"/>
<path d="M104.808 379.925C103.621 381.057 101.287 380.523 99.7042 378.75C98.0584 376.956 97.7668 374.563 98.975 373.431C100.204 372.299 102.454 372.833 104.1 374.627C105.746 376.4 106.058 378.771 104.808 379.925Z" fill="#E49090"/>
<path d="M114.662 394.684C113.12 395.774 110.62 394.749 109.079 392.484C107.537 390.199 107.537 387.465 109.12 386.375C110.662 385.286 113.141 386.269 114.704 388.533C116.224 390.84 116.224 393.574 114.662 394.684Z" fill="#E49090"/>
<path d="M128.161 408.953C126.786 410.512 123.87 410.085 121.745 407.97C119.558 405.898 118.953 402.972 120.328 401.413C121.724 399.854 124.661 400.302 126.807 402.395C128.974 404.467 129.62 407.415 128.161 408.953Z" fill="#E49090"/>
<path d="M146.806 417.219C146.202 419.227 143.39 420.146 140.557 419.291C137.723 418.415 135.869 416.066 136.453 414.037C137.036 412.007 139.869 411.068 142.723 411.986C145.536 412.84 147.39 415.19 146.806 417.219Z" fill="#E49090"/>
<path d="M167.264 418.757C167.326 420.872 164.931 422.623 161.952 422.666C158.973 422.73 156.535 421.021 156.514 418.949C156.514 416.813 158.868 415.083 161.847 415.019C164.826 414.955 167.264 416.664 167.264 418.757Z" fill="#E49090"/>
<path d="M186.305 415.446C186.659 417.497 184.596 419.633 181.638 420.188C178.743 420.744 176.055 419.462 175.68 417.411C175.326 415.297 177.43 413.182 180.326 412.627C183.263 412.093 185.93 413.332 186.305 415.446Z" fill="#E49090"/>
</svg>
