<svg width="512" height="436" viewBox="0 0 512 436" fill="none" xmlns="http://www.w3.org/2000/svg">
<path d="M490.709 422.459H495.552L486.272 408.421C491.947 408.421 494.955 404.816 494.997 400.4C494.997 400.229 494.997 400.037 494.976 399.867C494.976 393.851 491.349 390.971 483.904 390.971H471.872V422.459H476.395V408.741H481.963L490.709 422.459ZM481.643 405.179H476.395V394.533H483.051C486.485 394.533 490.411 395.088 490.411 399.589C490.411 404.752 486.464 405.179 481.643 405.179Z" fill="#E49090"/>
<path d="M368.875 368.891H304.725V268.432C304.725 244.475 304.299 213.648 271.36 213.648C237.952 213.648 232.832 239.739 232.832 266.704V368.891H168.704V162.299H230.293V190.523H231.147C243.712 169.061 267.051 156.24 291.904 157.157C356.928 157.157 368.896 199.931 368.896 255.547L368.875 368.891ZM96.32 134.053C75.7547 134.053 59.0933 117.392 59.0933 96.8267C59.0933 76.2613 75.7547 59.6 96.32 59.6C116.885 59.6 133.547 76.2613 133.547 96.8267C133.547 117.392 116.885 134.053 96.32 134.053ZM128.384 368.891H64.1707V162.299H128.384V368.891ZM400.853 0.0373088H31.936C14.5067 -0.154691 0.213333 13.8186 0 31.248V401.68C0.213333 419.131 14.5067 433.104 31.936 432.912H400.853C418.325 433.125 432.683 419.152 432.917 401.68V31.2266C432.661 13.7546 418.304 -0.218692 400.853 0.0159745" fill="#E49090"/>
<path d="M482.197 376.955C465.899 377.104 452.8 390.459 452.971 406.757C453.12 423.056 466.475 436.155 482.773 435.984C499.072 435.835 512.171 422.48 512 406.181C511.851 390.096 498.837 377.104 482.773 376.955H482.197ZM482.88 432.592C468.587 432.827 456.128 421.456 455.893 407.163C455.659 392.869 467.051 381.093 481.344 380.859C495.637 380.624 507.413 392.016 507.648 406.309C507.648 406.459 507.648 406.587 507.648 406.736C507.947 420.709 496.853 432.293 482.88 432.592H482.219Z" fill="#E49090"/>
</svg>
